<svg width="25" height="25" viewBox="0 0 25 25" fill="none" xmlns="http://www.w3.org/2000/svg">
<path fill-rule="evenodd" clip-rule="evenodd" d="M9.8103 2.96582C13.6763 2.96582 16.8103 6.09983 16.8103 9.96582C16.8103 13.8318 13.6763 16.9658 9.8103 16.9658C8.97007 16.9658 8.16653 16.8182 7.42277 16.5484C7.09493 16.4294 6.73037 16.4029 6.37478 16.4902C5.41969 16.7248 4.44467 16.8736 3.46137 16.9344C3.83113 15.9602 3.95888 14.907 3.82889 13.8666C3.79998 13.6352 3.72429 13.4322 3.63437 13.2643C3.10876 12.2825 2.8103 11.1605 2.8103 9.96582C2.8103 6.09983 5.94431 2.96582 9.8103 2.96582ZM18.8103 9.96582C18.8103 4.99526 14.7809 0.96582 9.8103 0.96582C4.83974 0.96582 0.810303 4.99526 0.810303 9.96582C0.810303 11.4825 1.18628 12.9143 1.85092 14.1702C1.95466 15.0961 1.76242 16.034 1.29763 16.8474L1.25662 16.9192C0.735502 17.8311 1.39399 18.9658 2.44434 18.9658C3.91219 18.9658 5.37163 18.7909 6.79223 18.447C7.73695 18.7832 8.75337 18.9658 9.8103 18.9658C14.7809 18.9658 18.8103 14.9364 18.8103 9.96582ZM21.1655 9.22394C20.7434 9.58005 20.6898 10.2109 21.0459 10.6331C22.1474 11.9388 22.8103 13.6236 22.8103 15.4658C22.8103 16.7484 22.4892 17.953 21.9238 19.0066C21.8331 19.1755 21.7579 19.3782 21.7288 19.6083C21.5858 20.739 21.7321 21.8843 22.1495 22.9381C21.0632 22.8769 19.9859 22.7151 18.9315 22.4552C18.5756 22.3675 18.2101 22.3939 17.8811 22.5139C17.0805 22.806 16.2152 22.9658 15.3103 22.9658C13.4681 22.9658 11.7833 22.3029 10.4776 21.2015C10.0554 20.8454 9.42453 20.8989 9.06842 21.321C8.71232 21.7432 8.76585 22.3741 9.188 22.7302C10.841 24.1246 12.9787 24.9658 15.3103 24.9658C16.4326 24.9658 17.5115 24.7708 18.5136 24.4119C20.0239 24.7791 21.5757 24.9658 23.1366 24.9658C24.2046 24.9658 24.8742 23.8121 24.3443 22.8848L24.3443 22.8848L24.3007 22.8085C23.7983 21.9293 23.5917 20.9149 23.7064 19.9143C24.4113 18.5861 24.8103 17.0711 24.8103 15.4658C24.8103 13.1342 23.969 10.9965 22.5747 9.34352C22.2186 8.92137 21.5877 8.86784 21.1655 9.22394ZM5.8103 10.9658C6.36259 10.9658 6.8103 10.5181 6.8103 9.96582C6.8103 9.41354 6.36259 8.96582 5.8103 8.96582C5.25802 8.96582 4.8103 9.41354 4.8103 9.96582C4.8103 10.5181 5.25802 10.9658 5.8103 10.9658ZM10.8103 9.96582C10.8103 10.5181 10.3626 10.9658 9.8103 10.9658C9.25802 10.9658 8.8103 10.5181 8.8103 9.96582C8.8103 9.41354 9.25802 8.96582 9.8103 8.96582C10.3626 8.96582 10.8103 9.41354 10.8103 9.96582ZM13.8103 10.9658C14.3626 10.9658 14.8103 10.5181 14.8103 9.96582C14.8103 9.41354 14.3626 8.96582 13.8103 8.96582C13.258 8.96582 12.8103 9.41354 12.8103 9.96582C12.8103 10.5181 13.258 10.9658 13.8103 10.9658Z" fill="black"/>
</svg>
