<svg width="25" height="25" viewBox="0 0 25 25" fill="none" xmlns="http://www.w3.org/2000/svg">
<path fill-rule="evenodd" clip-rule="evenodd" d="M9.0603 2.96582C12.9263 2.96582 16.0603 6.09983 16.0603 9.96582C16.0603 13.8318 12.9263 16.9658 9.0603 16.9658C8.22007 16.9658 7.41653 16.8182 6.67277 16.5484C6.34493 16.4294 5.98037 16.4029 5.62478 16.4902C4.66969 16.7248 3.69467 16.8736 2.71137 16.9344C3.08113 15.9602 3.20888 14.907 3.07889 13.8666C3.04998 13.6352 2.97429 13.4322 2.88437 13.2643C2.35876 12.2825 2.0603 11.1605 2.0603 9.96582C2.0603 6.09983 5.19431 2.96582 9.0603 2.96582ZM18.0603 9.96582C18.0603 4.99526 14.0309 0.96582 9.0603 0.96582C4.08974 0.96582 0.0603027 4.99526 0.0603027 9.96582C0.0603027 11.4825 0.436281 12.9143 1.10092 14.1702C1.20466 15.0961 1.01242 16.034 0.547634 16.8474L0.506618 16.9192C-0.0144978 17.8311 0.643986 18.9658 1.69434 18.9658C3.16219 18.9658 4.62163 18.7909 6.04223 18.447C6.98695 18.7832 8.00337 18.9658 9.0603 18.9658C14.0309 18.9658 18.0603 14.9364 18.0603 9.96582ZM20.4155 9.22394C19.9934 9.58005 19.9398 10.2109 20.2959 10.6331C21.3974 11.9388 22.0603 13.6236 22.0603 15.4658C22.0603 16.7484 21.7392 17.953 21.1738 19.0066C21.0831 19.1755 21.0079 19.3782 20.9788 19.6083C20.8358 20.739 20.9821 21.8843 21.3995 22.9381C20.3132 22.8769 19.2359 22.7151 18.1815 22.4552C17.8256 22.3675 17.4601 22.3939 17.1311 22.5139C16.3305 22.806 15.4652 22.9658 14.5603 22.9658C12.7181 22.9658 11.0333 22.3029 9.72757 21.2015C9.30543 20.8454 8.67453 20.8989 8.31842 21.321C7.96232 21.7432 8.01585 22.3741 8.438 22.7302C10.091 24.1246 12.2287 24.9658 14.5603 24.9658C15.6826 24.9658 16.7615 24.7708 17.7636 24.4119C19.2739 24.7791 20.8257 24.9658 22.3866 24.9658C23.4546 24.9658 24.1242 23.8121 23.5943 22.8848L23.5943 22.8848L23.5507 22.8085C23.0483 21.9293 22.8417 20.9149 22.9564 19.9143C23.6613 18.5861 24.0603 17.0711 24.0603 15.4658C24.0603 13.1342 23.219 10.9965 21.8247 9.34352C21.4686 8.92137 20.8377 8.86784 20.4155 9.22394ZM5.0603 10.9658C5.61259 10.9658 6.0603 10.5181 6.0603 9.96582C6.0603 9.41354 5.61259 8.96582 5.0603 8.96582C4.50802 8.96582 4.0603 9.41354 4.0603 9.96582C4.0603 10.5181 4.50802 10.9658 5.0603 10.9658ZM10.0603 9.96582C10.0603 10.5181 9.61259 10.9658 9.0603 10.9658C8.50802 10.9658 8.0603 10.5181 8.0603 9.96582C8.0603 9.41354 8.50802 8.96582 9.0603 8.96582C9.61259 8.96582 10.0603 9.41354 10.0603 9.96582ZM13.0603 10.9658C13.6126 10.9658 14.0603 10.5181 14.0603 9.96582C14.0603 9.41354 13.6126 8.96582 13.0603 8.96582C12.508 8.96582 12.0603 9.41354 12.0603 9.96582C12.0603 10.5181 12.508 10.9658 13.0603 10.9658Z" fill="black"/>
</svg>
