<svg width="25" height="24" viewBox="0 0 25 24" fill="none" xmlns="http://www.w3.org/2000/svg">
<path d="M17 8.6303C16.59 8.6303 16.25 8.2903 16.25 7.8803V6.5003C16.25 5.4503 15.8 4.4303 15.02 3.7203C14.23 3.0003 13.21 2.6703 12.13 2.7703C10.33 2.9403 8.75 4.7803 8.75 6.7003V7.6703C8.75 8.0803 8.41 8.4203 8 8.4203C7.59 8.4203 7.25 8.0803 7.25 7.6703V6.6903C7.25 4.0003 9.42 1.5203 11.99 1.2703C13.49 1.1303 14.93 1.6003 16.03 2.6103C17.12 3.6003 17.75 5.0203 17.75 6.5003V7.8803C17.75 8.2903 17.41 8.6303 17 8.6303Z" fill="black"/>
<path d="M15.4999 22.75H9.49994C4.87994 22.75 4.01994 20.6 3.79994 18.51L3.04994 12.52C2.93994 11.44 2.89994 9.89 3.94994 8.73C4.84994 7.73 6.33994 7.25 8.49994 7.25H16.4999C18.6699 7.25 20.1599 7.74 21.0499 8.73C22.0899 9.89 22.0599 11.44 21.9499 12.5L21.1999 18.51C20.9799 20.6 20.1199 22.75 15.4999 22.75ZM8.49994 8.75C6.80994 8.75 5.64994 9.08 5.05994 9.74C4.56994 10.28 4.40994 11.11 4.53994 12.35L5.28994 18.34C5.45994 19.94 5.89994 21.26 9.49994 21.26H15.4999C19.0999 21.26 19.5399 19.95 19.7099 18.36L20.4599 12.35C20.5899 11.13 20.4299 10.3 19.9399 9.75C19.3499 9.08 18.1899 8.75 16.4999 8.75H8.49994Z" fill="black"/>
<path d="M15.92 13.1504C15.36 13.1504 14.91 12.7004 14.91 12.1504C14.91 11.6004 15.36 11.1504 15.91 11.1504C16.46 11.1504 16.91 11.6004 16.91 12.1504C16.91 12.7004 16.47 13.1504 15.92 13.1504Z" fill="black"/>
<path d="M8.92003 13.1504C8.36003 13.1504 7.91003 12.7004 7.91003 12.1504C7.91003 11.6004 8.36003 11.1504 8.91003 11.1504C9.46003 11.1504 9.91003 11.6004 9.91003 12.1504C9.91003 12.7004 9.47003 13.1504 8.92003 13.1504Z" fill="black"/>
</svg>
