<svg width="32" height="26" viewBox="0 0 32 26" fill="none" xmlns="http://www.w3.org/2000/svg">
<path d="M1.5 6.5V0H9V2.6H4.5V6.5H1.5ZM1.5 26V19.5H4.5V23.4H9V26H1.5ZM24 26V23.4H28.5V19.5H31.5V26H24ZM28.5 6.5V2.6H24V0H31.5V6.5H28.5ZM24.75 20.15H27V22.1H24.75V20.15ZM24.75 16.25H27V18.2H24.75V16.25ZM22.5 18.2H24.75V20.15H22.5V18.2ZM20.25 20.15H22.5V22.1H20.25V20.15ZM18 18.2H20.25V20.15H18V18.2ZM22.5 14.3H24.75V16.25H22.5V14.3ZM20.25 16.25H22.5V18.2H20.25V16.25ZM18 14.3H20.25V16.25H18V14.3ZM27 3.9V11.7H18V3.9H27ZM15 14.3V22.1H6V14.3H15ZM15 3.9V11.7H6V3.9H15ZM12.75 20.15V16.25H8.25V20.15H12.75ZM12.75 9.75V5.85H8.25V9.75H12.75ZM24.75 9.75V5.85H20.25V9.75H24.75Z" fill="black"/>
</svg>
