<svg width="25" height="24" viewBox="0 0 25 24" fill="none" xmlns="http://www.w3.org/2000/svg">
<path d="M22.25 12V17C22.25 20 20.25 22 17.25 22H7.25C4.25 22 2.25 20 2.25 17V12C2.25 9.28 3.89 7.38 6.44 7.06C6.7 7.02 6.97 7 7.25 7H17.25C17.51 7 17.76 7.00999 18 7.04999C20.58 7.34999 22.25 9.26 22.25 12Z" stroke="black" stroke-width="1.5" stroke-linecap="round" stroke-linejoin="round"/>
<path d="M18.0014 7.05C17.7614 7.01 17.5114 7.00001 17.2514 7.00001H7.25141C6.97141 7.00001 6.70141 7.02001 6.44141 7.06001C6.58141 6.78001 6.78141 6.52001 7.02141 6.28001L10.2714 3.02C11.6414 1.66 13.8614 1.66 15.2314 3.02L16.9814 4.79002C17.6214 5.42002 17.9614 6.22 18.0014 7.05Z" stroke="black" stroke-width="1.5" stroke-linecap="round" stroke-linejoin="round"/>
<path d="M22.25 12.5H19.25C18.15 12.5 17.25 13.4 17.25 14.5C17.25 15.6 18.15 16.5 19.25 16.5H22.25" stroke="black" stroke-width="1.5" stroke-linecap="round" stroke-linejoin="round"/>
</svg>
